<?xml version="1.0" standalone="no"?>
<!DOCTYPE svg PUBLIC "-//W3C//DTD SVG 20010904//EN"
 "http://www.w3.org/TR/2001/REC-SVG-20010904/DTD/svg10.dtd">
<svg version="1.0" xmlns="http://www.w3.org/2000/svg"
 width="1024.000000pt" height="1024.000000pt" viewBox="0 0 1024.000000 1024.000000"
 preserveAspectRatio="xMidYMid meet">

<g transform="translate(0.000000,1024.000000) scale(0.100000,-0.100000)"
fill="#000000" stroke="none">
<path d="M4818 10140 c-1222 -60 -2368 -566 -3239 -1430 -786 -779 -1294
-1798 -1433 -2875 -29 -224 -37 -359 -37 -645 0 -386 18 -600 82 -935 161
-851 516 -1602 1080 -2280 114 -137 447 -469 599 -597 374 -315 759 -556 1210
-760 199 -91 525 -204 740 -258 225 -56 272 -67 437 -94 815 -137 1637 -76
2398 179 239 79 375 135 590 239 1247 606 2200 1728 2589 3046 128 434 187
789 206 1230 49 1169 -292 2266 -995 3199 -615 815 -1466 1426 -2428 1740
-577 189 -1191 271 -1799 241z m777 -1059 c459 -63 835 -177 1240 -376 620
-304 1135 -749 1538 -1328 364 -524 573 -1085 659 -1767 17 -140 18 -678 0
-820 -71 -574 -231 -1070 -493 -1533 -388 -685 -1002 -1262 -1714 -1612 -423
-208 -857 -331 -1365 -387 -149 -16 -589 -16 -750 0 -970 98 -1831 515 -2506
1214 -618 640 -990 1442 -1085 2343 -15 144 -15 567 0 720 122 1223 799 2312
1851 2975 270 170 636 337 940 428 298 90 442 118 850 166 19 2 181 3 360 1
262 -2 354 -7 475 -24z"/>
<path d="M4800 9014 c-551 -50 -993 -172 -1458 -404 -1151 -575 -1952 -1694
-2118 -2960 -25 -194 -30 -625 -9 -835 28 -283 81 -544 161 -790 253 -775 725
-1426 1402 -1932 568 -426 1255 -683 1986 -743 208 -18 633 -8 833 19 711 96
1338 367 1913 825 155 123 477 444 593 590 687 865 974 1919 811 2986 -118
777 -465 1472 -1027 2056 -535 557 -1233 946 -1990 1108 -279 60 -434 77 -762
81 -159 1 -310 1 -335 -1z m-190 -1559 c42 -22 60 -53 60 -106 0 -39 -5 -53
-30 -77 -75 -76 -207 -39 -226 63 -18 96 101 169 196 120z m1238 -542 l-3
-488 -107 -3 -108 -3 0 484 c0 266 3 487 7 490 3 4 53 7 110 7 l103 0 -2 -487z
m-1747 427 c65 -17 135 -42 158 -57 2 -1 -11 -41 -29 -88 -31 -81 -44 -96 -65
-76 -30 27 -144 54 -231 55 -85 1 -93 -1 -127 -27 -37 -28 -47 -60 -31 -102
10 -25 70 -51 185 -78 257 -62 331 -121 333 -267 0 -80 -36 -165 -88 -205 -86
-65 -237 -103 -360 -90 -124 13 -299 74 -312 109 -4 11 47 151 61 164 2 2 23
-7 47 -21 174 -101 429 -94 428 11 -1 56 -36 77 -200 117 -136 33 -203 60
-252 104 -100 87 -95 280 10 372 40 35 119 76 169 88 71 17 220 12 304 -9z
m2367 -204 c161 -43 261 -174 265 -346 l2 -75 -262 -3 c-145 -1 -263 -4 -263
-7 0 -14 45 -76 66 -90 63 -41 196 -36 265 9 l36 24 52 -52 c28 -28 51 -56 51
-62 0 -19 -55 -63 -115 -91 -55 -26 -70 -28 -175 -28 -111 0 -118 1 -184 34
-160 78 -238 229 -207 397 15 84 41 134 96 189 97 98 240 136 373 101z m-1818
-356 l0 -360 -105 0 -105 0 0 360 0 360 105 0 105 0 0 -360z m325 338 c7 -22
82 -219 142 -371 14 -37 30 -64 34 -60 4 4 24 51 45 103 21 52 61 151 89 220
l50 125 108 3 c61 1 107 -1 107 -7 0 -5 -13 -37 -29 -72 -30 -65 -116 -269
-213 -504 l-53 -130 -111 -3 -111 -3 -108 263 c-59 145 -125 304 -147 354 -21
50 -38 94 -38 98 0 3 51 6 114 6 110 0 115 -1 121 -22z m171 -1312 c16 -18 23
-44 28 -105 l7 -81 25 16 c13 9 24 12 24 8 0 -5 5 -2 10 6 5 8 10 37 10 63 0
60 20 101 59 117 35 14 69 8 101 -18 18 -15 24 -31 27 -78 7 -96 10 -104 42
-104 24 0 30 5 35 31 3 17 6 51 6 75 0 61 33 99 89 99 31 0 47 -7 68 -28 25
-24 28 -36 33 -114 l5 -87 45 -11 c25 -7 149 -15 275 -19 126 -4 234 -11 239
-16 5 -5 7 -63 4 -130 -3 -91 -8 -124 -19 -131 -8 -5 -64 -9 -125 -9 -87 0
-114 -3 -124 -15 -11 -13 -8 -15 14 -15 38 0 93 -25 105 -48 20 -38 13 -96
-15 -123 -21 -20 -39 -25 -102 -29 l-77 -5 -3 -32 c-3 -33 -3 -33 40 -33 119
-2 168 -31 168 -100 0 -60 -31 -83 -132 -95 -79 -10 -83 -11 -86 -36 -3 -23 1
-27 35 -32 21 -4 60 -7 86 -7 63 0 97 -31 97 -88 0 -54 -35 -92 -87 -93 -21 0
-56 -3 -78 -7 -36 -7 -40 -10 -40 -37 l0 -30 79 -6 c70 -5 81 -8 102 -33 34
-38 32 -91 -3 -128 -25 -27 -31 -28 -117 -28 -104 0 -136 -6 -136 -26 0 -8 -9
-23 -20 -34 -11 -11 -20 -27 -20 -35 0 -43 -51 -95 -93 -95 -11 0 -15 -24 -19
-112 -4 -106 -6 -112 -32 -135 -36 -31 -86 -30 -123 1 -24 21 -28 32 -31 94
l-4 70 -33 0 c-37 0 -45 -14 -45 -80 0 -71 -34 -108 -98 -108 -58 0 -92 53
-92 143 0 23 -5 37 -12 37 -7 0 -23 3 -35 6 -22 6 -23 3 -23 -45 0 -61 -20
-115 -48 -130 -35 -19 -79 -13 -111 15 -27 23 -31 32 -31 78 0 29 -3 74 -6 98
l-6 45 -53 6 c-29 3 -79 -1 -116 -9 -93 -21 -333 -30 -411 -15 -102 19 -208
58 -293 107 -44 24 -84 49 -89 54 -5 5 -3 60 4 135 16 151 23 159 98 121 99
-50 375 -111 467 -103 225 21 288 149 115 234 -36 17 -103 43 -150 59 -47 15
-112 36 -145 46 -92 30 -218 105 -285 169 -171 163 -170 415 1 580 69 66 145
107 264 140 97 28 306 33 421 10 50 -9 86 -11 120 -5 l49 9 10 99 c10 90 13
100 39 123 36 31 90 26 122 -11z m-1296 -221 l0 -115 -25 0 c-35 0 -110 -72
-129 -123 -9 -23 -23 -93 -31 -156 -17 -126 -32 -191 -70 -296 -32 -92 -31
-137 5 -243 17 -48 46 -162 65 -253 44 -218 74 -277 144 -286 l41 -6 0 -115 0
-115 -107 5 c-125 6 -178 25 -243 90 -72 72 -101 156 -135 383 -18 119 -34
162 -88 248 -29 45 -44 58 -75 68 -37 11 -40 14 -45 57 -3 24 -2 71 0 103 6
58 7 59 42 69 40 11 75 49 114 125 26 53 39 107 58 250 12 93 40 198 66 249 8
15 33 48 56 73 69 75 138 101 270 102 l87 1 0 -115z m2795 86 c132 -59 189
-169 229 -442 22 -147 26 -161 67 -234 43 -76 56 -88 112 -99 l27 -6 0 -105 0
-105 -44 -11 c-54 -13 -65 -24 -109 -114 -30 -59 -39 -94 -56 -215 -25 -180
-41 -232 -91 -308 -71 -106 -137 -141 -277 -149 -123 -7 -123 -8 -123 122 l0
103 43 6 c81 12 130 111 162 327 9 57 31 152 50 211 19 59 35 121 35 137 0 17
-18 86 -40 154 -26 80 -45 164 -54 239 -8 64 -21 132 -30 151 -23 56 -91 124
-131 131 l-35 7 0 108 c0 59 3 111 8 115 4 5 52 6 107 4 76 -3 112 -9 150 -27z
m-1805 -2381 l0 -40 -125 0 -125 0 0 -311 0 -310 -47 3 -48 3 -3 308 -2 307
-125 0 -125 0 0 40 0 40 300 0 300 0 0 -40z m418 -156 c81 -40 132 -127 132
-225 l0 -49 -215 0 c-118 0 -215 -3 -215 -7 0 -24 47 -96 74 -112 67 -42 176
-39 242 6 l38 25 24 -27 c22 -26 22 -28 5 -47 -42 -46 -93 -63 -193 -63 -79 0
-102 4 -136 22 -131 70 -180 241 -108 373 48 88 120 129 230 130 56 0 81 -5
122 -26z m631 1 c58 -29 102 -82 80 -96 -46 -31 -49 -31 -85 0 -19 17 -46 34
-60 37 -47 12 -131 -1 -169 -27 -107 -72 -98 -256 16 -317 36 -19 55 -23 106
-20 52 3 69 9 103 36 40 33 40 33 70 15 17 -9 30 -20 30 -24 0 -19 -47 -61
-95 -84 -101 -50 -254 -24 -323 53 -51 58 -67 102 -67 187 0 119 45 194 146
243 66 32 183 30 248 -3z"/>
<path d="M6302 6966 c-37 -17 -49 -29 -75 -68 -36 -57 -32 -58 143 -58 128 0
160 3 160 14 0 19 -41 76 -70 98 -35 25 -116 32 -158 14z"/>
<path d="M5062 5663 c2 -79 6 -98 18 -98 12 0 16 19 18 98 3 92 2 97 -18 97
-20 0 -21 -5 -18 -97z"/>
<path d="M5327 5754 c-4 -4 -7 -47 -7 -96 0 -88 0 -88 25 -88 l26 0 -3 92 c-2
74 -6 93 -18 96 -9 1 -19 0 -23 -4z"/>
<path d="M5597 5753 c-4 -3 -7 -46 -7 -95 0 -87 0 -88 25 -88 25 0 25 1 25 79
0 44 -3 86 -6 95 -6 16 -26 21 -37 9z"/>
<path d="M4508 5509 c-201 -17 -365 -115 -411 -245 -22 -64 -22 -175 2 -232
53 -132 129 -176 501 -293 241 -75 300 -109 335 -191 33 -81 9 -168 -62 -227
-130 -108 -449 -101 -691 15 -41 20 -75 34 -77 32 -1 -2 -6 -31 -10 -65 l-7
-61 64 -30 c133 -63 273 -92 446 -92 238 1 416 88 485 238 17 37 22 66 22 137
0 105 -16 144 -87 211 -81 78 -155 112 -393 183 -305 92 -375 137 -391 254
-13 91 66 188 180 223 129 39 342 26 478 -31 102 -43 95 -44 114 21 19 68 18
70 -75 105 -112 42 -277 61 -423 48z"/>
<path d="M5072 5478 c9 -7 24 -17 33 -23 15 -9 14 -15 -4 -72 -11 -34 -23 -79
-27 -100 -9 -49 -29 -89 -49 -96 -8 -4 -41 7 -73 23 -60 31 -256 70 -348 70
-60 0 -149 -28 -180 -57 -35 -32 -33 -91 4 -125 33 -31 117 -72 215 -103 149
-48 223 -78 245 -98 18 -17 38 -22 90 -24 l67 -3 30 42 c35 49 47 55 68 33 15
-14 14 -19 -5 -53 -33 -57 -59 -82 -87 -82 -24 0 -23 -3 24 -50 48 -48 51 -50
106 -50 50 0 57 3 67 25 16 34 67 58 107 51 79 -15 107 -114 46 -168 -44 -39
-92 -38 -133 2 -23 23 -38 30 -69 30 -34 0 -39 -3 -35 -17 11 -36 26 -127 26
-159 0 -32 2 -34 33 -34 25 1 36 8 52 33 18 28 26 32 71 35 47 3 54 0 78 -28
81 -97 -56 -219 -146 -130 -22 23 -39 30 -67 30 -36 0 -38 -2 -61 -57 -14 -35
-44 -79 -77 -112 -29 -30 -53 -55 -53 -56 0 -1 546 1 628 3 75 2 82 4 82 22 0
18 -7 20 -85 20 -66 0 -86 3 -93 16 -5 8 -6 183 -4 388 3 204 1 443 -3 529
l-7 157 -158 0 c-87 0 -171 3 -188 6 l-31 6 -3 92 -3 91 -50 3 c-42 2 -47 0
-33 -10z m321 -321 c61 -57 59 -138 -4 -191 -61 -52 -151 -38 -190 29 -21 35
-22 35 -90 35 l-69 0 -27 -42 c-15 -24 -32 -46 -38 -50 -8 -6 -43 -2 -53 7 -2
1 17 31 41 66 l43 64 82 5 c44 3 83 8 85 10 1 3 11 18 21 33 25 40 74 67 123
67 33 0 48 -6 76 -33z"/>
<path d="M5285 5130 c-46 -18 -61 -66 -34 -109 15 -25 25 -31 54 -31 22 0 43
8 55 20 52 52 -8 148 -75 120z"/>
<path d="M5232 5433 l3 -58 192 -3 193 -2 2 -543 3 -542 78 -3 77 -3 0 545 0
546 208 2 207 3 3 58 3 57 -486 0 -486 0 3 -57z"/>
<path d="M5860 5155 l0 -26 103 3 c94 3 102 4 102 23 0 19 -8 20 -102 23
l-103 3 0 -26z"/>
<path d="M5860 4890 c0 -19 7 -20 105 -20 98 0 105 1 105 20 0 19 -7 20 -105
20 -98 0 -105 -1 -105 -20z"/>
<path d="M5302 4718 c-19 -19 -14 -46 12 -63 36 -24 68 -5 64 38 -3 27 -7 32
-33 35 -17 2 -36 -3 -43 -10z"/>
<path d="M5860 4630 c0 -20 5 -21 102 -18 89 3 103 5 106 21 3 15 -7 17 -102
17 -100 0 -106 -1 -106 -20z"/>
<path d="M5323 4453 c-21 -8 -16 -61 7 -73 30 -16 60 4 60 39 0 35 -29 50 -67
34z"/>
<path d="M5856 4372 c-2 -4 -1 -14 3 -20 5 -9 36 -12 107 -10 85 3 99 5 102
21 3 15 -7 17 -102 17 -58 0 -107 -4 -110 -8z"/>
<path d="M5060 3985 c0 -105 0 -106 23 -103 21 3 22 7 22 103 0 96 -1 100 -22
103 -23 3 -23 2 -23 -103z"/>
<path d="M5327 4083 c-10 -10 -8 -176 2 -192 5 -8 16 -11 25 -8 13 5 16 24 16
107 0 90 -2 100 -18 100 -10 0 -22 -3 -25 -7z"/>
<path d="M5592 3988 c3 -95 4 -103 23 -103 19 0 20 7 20 100 0 97 -1 100 -23
103 -23 3 -23 3 -20 -100z"/>
<path d="M3654 5606 c-58 -19 -98 -52 -128 -105 -32 -60 -41 -102 -61 -286
-27 -255 -63 -329 -180 -372 -47 -17 -50 -21 -53 -56 -3 -29 1 -38 15 -43 10
-3 42 -16 71 -30 97 -44 118 -101 156 -424 19 -155 38 -212 87 -261 40 -40
114 -69 175 -69 28 0 33 4 39 30 9 39 3 46 -42 54 -108 17 -146 83 -168 297
-27 254 -50 325 -128 397 -26 23 -47 48 -47 55 0 7 13 21 30 30 78 46 115 141
136 346 19 185 37 263 69 306 25 31 78 59 130 67 16 3 20 11 20 38 0 34 -1 35
-40 37 -22 1 -58 -4 -81 -11z"/>
<path d="M6460 5585 c0 -20 6 -37 13 -39 6 -2 32 -9 56 -16 94 -25 121 -85
146 -315 27 -248 48 -311 130 -382 25 -23 45 -44 45 -48 0 -4 -20 -25 -45 -47
-79 -69 -107 -148 -130 -363 -18 -165 -22 -190 -42 -230 -28 -55 -63 -84 -120
-96 -53 -12 -53 -12 -53 -51 0 -43 3 -44 91 -28 146 28 187 107 224 430 8 74
23 157 31 184 22 66 85 128 147 145 47 13 47 14 47 56 0 41 -2 43 -34 49 -48
9 -112 59 -136 106 -27 53 -46 141 -60 275 -22 221 -45 292 -112 349 -41 35
-101 56 -162 56 -34 0 -36 -2 -36 -35z"/>
<path d="M5080 3079 c-49 -15 -85 -44 -104 -83 -32 -67 -35 -66 160 -66 l176
0 -7 28 c-9 38 -44 87 -76 106 -36 21 -105 28 -149 15z"/>
</g>
</svg>
